# xmcd
#
# Track frame offsets:
#	150
#	23925
#	49275
#	75225
#	103875
#	127725
#	147525
#	172350
#	197775
#	220800
#
# Disc length: 3297 seconds
#
# Revision: 5
# Processed by: cddbd v1.5.2PL0 Copyright (c) Steve Scherf et al.
# Submitted via: dBpowerAMP V4.0
#
DISCID=920cdf0a
DTITLE=德永英明 - Nostalgia
DYEAR=1994
DGENRE=JPop
TTITLE0=錯失了的夏天
TTITLE1=Navigation
TTITLE2=Money
TTITLE3=在我身旁
TTITLE4=心靈的願望
TTITLE5=還有明天
TTITLE6=Friends
TTITLE7=戀之花
TTITLE8=Jealousy
TTITLE9=像那天一樣
EXTD=
EXTT0=
EXTT1=
EXTT2=
EXTT3=
EXTT4=
EXTT5=
EXTT6=
EXTT7=
EXTT8=
EXTT9=
PLAYORDER=
